<svg width="25" height="27" viewBox="0 0 25 27" fill="none" xmlns="http://www.w3.org/2000/svg" color="#0D0842">
<path d="M1 1.5H3.55556L4.06667 4.16667M6.11111 14.8333H18.8889L24 4.16667H4.06667M6.11111 14.8333L4.06667 4.16667M6.11111 14.8333L3.1813 17.8905C2.37635 18.7305 2.94645 20.1667 4.08483 20.1667H18.8889M18.8889 20.1667C17.4775 20.1667 16.3333 21.3606 16.3333 22.8333C16.3333 24.3061 17.4775 25.5 18.8889 25.5C20.3003 25.5 21.4444 24.3061 21.4444 22.8333C21.4444 21.3606 20.3003 20.1667 18.8889 20.1667ZM8.66667 22.8333C8.66667 24.3061 7.52251 25.5 6.11111 25.5C4.69972 25.5 3.55556 24.3061 3.55556 22.8333C3.55556 21.3606 4.69972 20.1667 6.11111 20.1667C7.52251 20.1667 8.66667 21.3606 8.66667 22.8333Z" stroke="currentColor" stroke-width="1.7" stroke-linecap="round" stroke-linejoin="round"/>
</svg>
